<svg width="47" height="34" viewBox="0 0 47 34" fill="none" xmlns="http://www.w3.org/2000/svg">
<path d="M18.3635 24.3729C18.3635 29.2796 14.3858 33.2573 9.47907 33.2573C4.57235 33.2573 0.594666 29.2796 0.594666 24.3729C0.594666 21.7859 1.70037 19.4571 3.46497 17.8334C5.04727 16.3775 7.15934 15.4885 9.47907 15.4885C14.3858 15.4885 18.3635 19.4661 18.3635 24.3729Z" fill="#197BBD"/>
<path d="M44.0045 24.3729C44.0045 29.2796 40.0268 33.2573 35.1201 33.2573C30.2134 33.2573 26.2357 29.2796 26.2357 24.3729C26.2357 23.7461 26.3006 23.1345 26.424 22.5444C27.267 18.5149 30.8401 15.4885 35.1201 15.4885C40.0268 15.4885 44.0045 19.4661 44.0045 24.3729Z" fill="#197BBD"/>
<path d="M34.027 13.7517C34.027 18.2233 30.7236 21.9233 26.424 22.5444C26.0056 22.6048 25.5778 22.6361 25.1426 22.6361C20.8303 22.6361 17.2355 19.5637 16.4279 15.4885C16.3166 14.9268 16.2582 14.3461 16.2582 13.7517C16.2582 12.9711 16.3589 12.214 16.548 11.4927C17.5473 7.68007 21.0165 4.86731 25.1426 4.86731C30.0494 4.86731 34.027 8.84499 34.027 13.7517Z" fill="#197BBD"/>
<path d="M18.3635 24.3729C18.3635 29.2796 14.3858 33.2573 9.47907 33.2573H35.1201C30.2134 33.2573 26.2357 29.2796 26.2357 24.3729C26.2357 23.7461 26.3006 23.1345 26.424 22.5444C26.0056 22.6048 25.5778 22.6361 25.1426 22.6361C20.8303 22.6361 17.2355 19.5637 16.4279 15.4885H10.6326H9.47907C14.3858 15.4885 18.3635 19.4661 18.3635 24.3729Z" fill="#197BBD"/>
<path d="M16.4279 15.4885C16.3166 14.9268 16.2582 14.3461 16.2582 13.7517C16.2582 12.9711 16.3589 12.214 16.548 11.4927C15.8055 12.8247 13.5831 15.4885 10.6326 15.4885H16.4279Z" fill="#197BBD"/>
<circle cx="35.2619" cy="11.0472" r="8.01481" transform="rotate(-30 35.2619 11.0472)" fill="#FFC145"/>
<path d="M37.1816 14.6861C36.7312 14.9462 36.2943 15.1255 35.8708 15.2242C35.4437 15.3164 34.9843 15.3156 34.4927 15.222C34.3682 15.1995 34.2574 15.1562 34.1604 15.0922C34.0633 15.0281 33.9888 14.951 33.9368 14.8609C33.8513 14.7129 33.8285 14.5545 33.8683 14.3857C33.9108 14.2068 34.0125 14.0708 34.1734 13.978C34.2956 13.9074 34.4273 13.8829 34.5684 13.9043C34.928 13.9626 35.2566 13.9745 35.5541 13.94C35.858 13.9018 36.1869 13.7806 36.5408 13.5763C36.7789 13.4388 36.9772 13.2771 37.1358 13.0912C37.2907 12.8988 37.394 12.7062 37.4456 12.5134C37.4936 12.3141 37.4711 12.1341 37.3783 11.9732C37.2668 11.7802 37.1142 11.6496 36.9204 11.5813C36.7265 11.5131 36.4846 11.5026 36.1945 11.55C35.9007 11.5909 35.5556 11.6915 35.1591 11.8518C34.782 12.0009 34.4318 12.1001 34.1085 12.1495C33.7816 12.1924 33.4816 12.1855 33.2086 12.1286C32.9383 12.0616 32.6949 11.9448 32.4786 11.778C32.2585 11.6048 32.0686 11.3799 31.9088 11.1032C31.6674 10.685 31.5674 10.2666 31.6088 9.84807C31.6567 9.4258 31.8194 9.03158 32.097 8.66542C32.3746 8.29926 32.7354 7.98802 33.1793 7.7317C33.5976 7.49025 34.0207 7.3317 34.4489 7.25607C34.8798 7.1703 35.2636 7.15891 35.6002 7.22192C35.8722 7.26218 36.064 7.37882 36.1754 7.57184C36.2571 7.71339 36.2767 7.87365 36.2342 8.05262C36.1917 8.23158 36.0965 8.36378 35.9485 8.44922C35.852 8.50494 35.7484 8.52614 35.6378 8.51281C35.4828 8.48217 35.2962 8.47839 35.0779 8.50148C34.8559 8.51813 34.6335 8.55645 34.4107 8.61641C34.1843 8.66995 33.9874 8.74501 33.8201 8.84159C33.5435 9.00133 33.329 9.1723 33.1769 9.35452C33.0312 9.53302 32.9453 9.71126 32.9194 9.88923C32.8935 10.0672 32.9269 10.2366 33.0198 10.3975C33.1312 10.5905 33.2788 10.7198 33.4625 10.7853C33.6489 10.8407 33.8705 10.8457 34.1274 10.8003C34.3806 10.7485 34.6719 10.6661 35.0013 10.5531C35.4282 10.401 35.8143 10.2896 36.1596 10.219C36.5113 10.1446 36.8282 10.1289 37.1104 10.1719C37.3888 10.2085 37.6432 10.3147 37.8734 10.4906C38.1 10.6601 38.3079 10.9089 38.4974 11.237C38.7389 11.6552 38.8311 12.0824 38.774 12.5185C38.717 12.9547 38.5451 13.3627 38.2584 13.7428C37.978 14.1191 37.6191 14.4335 37.1816 14.6861ZM38.1774 14.8061C38.274 14.9734 38.2959 15.1452 38.2433 15.3214C38.2008 15.5004 38.0959 15.6382 37.9286 15.7347C37.7677 15.8276 37.5992 15.8477 37.4229 15.795C37.2504 15.7488 37.1158 15.6421 37.0192 15.4748L32.5393 7.7152C32.4427 7.54792 32.4175 7.37801 32.4637 7.20547C32.5127 7.02279 32.6208 6.88316 32.7881 6.78658C32.9554 6.69 33.1239 6.66989 33.2937 6.72627C33.4663 6.7725 33.6008 6.87926 33.6974 7.04655L38.1774 14.8061Z" fill="#404040"/>
</svg>
