<svg width="168" height="184" viewBox="0 0 168 184" fill="none" xmlns="http://www.w3.org/2000/svg">
<mask id="mask0_1_196" style="mask-type:alpha" maskUnits="userSpaceOnUse" x="9" y="0" width="159" height="184">
<rect x="9.53693" y="0.835266" width="157.933" height="183.032" rx="19.0044" fill="url(#paint0_linear_1_196)"/>
</mask>
<g mask="url(#mask0_1_196)">
<path d="M32.857 42.3662C32.857 51.4413 25.5002 58.7981 16.425 58.7981C7.34993 58.7981 -0.00689697 51.4413 -0.00689697 42.3662C-0.00689697 37.5815 2.03813 33.2744 5.30181 30.2713C8.22831 27.5785 12.1347 25.9342 16.425 25.9342C25.5002 25.9342 32.857 33.2911 32.857 42.3662Z" fill="#D15842"/>
<path d="M80.2807 42.3662C80.2807 51.4413 72.9239 58.7981 63.8488 58.7981C54.7737 58.7981 47.4168 51.4413 47.4168 42.3662C47.4168 41.2069 47.5369 40.0758 47.7652 38.9844C49.3244 31.5316 55.9329 25.9342 63.8488 25.9342C72.9239 25.9342 80.2807 33.2911 80.2807 42.3662Z" fill="#D15842"/>
<path d="M61.8272 22.7221C61.8272 30.9924 55.7173 37.8356 47.7652 38.9844C46.9914 39.0961 46.2 39.154 45.3952 39.154C37.4194 39.154 30.7708 33.4715 29.2771 25.9342C29.0712 24.8954 28.9633 23.8213 28.9633 22.7221C28.9633 21.2783 29.1495 19.8781 29.4992 18.544C31.3475 11.4924 37.7638 6.29012 45.3952 6.29012C54.4703 6.29012 61.8272 13.6469 61.8272 22.7221Z" fill="#D15842"/>
<path d="M32.857 42.3662C32.857 51.4413 25.5002 58.7981 16.425 58.7981H63.8488C54.7737 58.7981 47.4168 51.4413 47.4168 42.3662C47.4168 41.2069 47.5369 40.0758 47.7652 38.9844C46.9914 39.0961 46.2 39.154 45.3952 39.154C37.4194 39.154 30.7708 33.4715 29.2771 25.9342H18.5584H16.425C25.5002 25.9342 32.857 33.2911 32.857 42.3662Z" fill="#D15842"/>
<path d="M29.2771 25.9342C29.0712 24.8954 28.9633 23.8213 28.9633 22.7221C28.9633 21.2783 29.1495 19.8781 29.4992 18.544C28.126 21.0074 24.0155 25.9342 18.5584 25.9342H29.2771Z" fill="#D15842"/>
<path d="M112.096 29.4042C112.096 35.4147 107.224 40.2873 101.213 40.2873C95.2025 40.2873 90.33 35.4147 90.33 29.4042C90.33 26.2352 91.6845 23.3826 93.846 21.3936C95.7843 19.6101 98.3715 18.5211 101.213 18.5211C107.224 18.5211 112.096 23.3936 112.096 29.4042Z" fill="#D15842"/>
<path d="M143.505 29.4042C143.505 35.4147 138.633 40.2873 132.622 40.2873C126.612 40.2873 121.739 35.4147 121.739 29.4042C121.739 28.6364 121.819 27.8872 121.97 27.1644C123.003 22.2283 127.38 18.5211 132.622 18.5211C138.633 18.5211 143.505 23.3936 143.505 29.4042Z" fill="#D15842"/>
<path d="M131.283 16.3936C131.283 21.8712 127.237 26.4035 121.97 27.1644C121.458 27.2384 120.933 27.2767 120.4 27.2767C115.118 27.2767 110.714 23.5131 109.725 18.5211C109.589 17.8331 109.517 17.1217 109.517 16.3936C109.517 15.4374 109.641 14.51 109.872 13.6265C111.096 8.95609 115.346 5.51056 120.4 5.51056C126.411 5.51056 131.283 10.3831 131.283 16.3936Z" fill="#D15842"/>
<path d="M112.096 29.4042C112.096 35.4147 107.224 40.2873 101.213 40.2873H132.622C126.612 40.2873 121.739 35.4147 121.739 29.4042C121.739 28.6364 121.819 27.8872 121.97 27.1644C121.458 27.2384 120.933 27.2767 120.4 27.2767C115.118 27.2767 110.714 23.5131 109.725 18.5211H102.626H101.213C107.224 18.5211 112.096 23.3936 112.096 29.4042Z" fill="#D15842"/>
<path d="M109.725 18.5211C109.589 17.8331 109.517 17.1217 109.517 16.3936C109.517 15.4374 109.641 14.51 109.872 13.6265C108.963 15.258 106.24 18.5211 102.626 18.5211H109.725Z" fill="#D15842"/>
<circle cx="80.4155" cy="79.8679" r="14.5666" transform="rotate(-30 80.4155 79.8679)" fill="#D15842"/>
<path d="M83.9081 86.4883C83.0895 86.9609 82.2954 87.2869 81.5258 87.4662C80.7494 87.6337 79.9145 87.6324 79.0211 87.4622C78.7948 87.4214 78.5935 87.3427 78.4171 87.2263C78.2407 87.1098 78.1053 86.9697 78.0107 86.806C77.8555 86.5371 77.814 86.2492 77.8863 85.9423C77.9636 85.6171 78.1484 85.3701 78.4407 85.2013C78.6629 85.073 78.9022 85.0284 79.1586 85.0674C79.8123 85.1734 80.4095 85.195 80.9502 85.1323C81.5025 85.0629 82.1003 84.8425 82.7435 84.4712C83.1761 84.2213 83.5366 83.9275 83.8248 83.5896C84.1063 83.2399 84.294 82.8899 84.3879 82.5394C84.4751 82.1773 84.4343 81.85 84.2655 81.5577C84.0629 81.2069 83.7855 80.9695 83.4333 80.8454C83.081 80.7214 82.6413 80.7024 82.1141 80.7885C81.5801 80.8629 80.9529 81.0457 80.2323 81.337C79.5469 81.608 78.9104 81.7884 78.3229 81.8781C77.7287 81.9561 77.1835 81.9435 76.6873 81.8402C76.196 81.7184 75.7537 81.506 75.3605 81.2029C74.9605 80.8882 74.6153 80.4794 74.325 79.9765C73.8862 79.2164 73.7044 78.456 73.7797 77.6953C73.8668 76.9279 74.1625 76.2114 74.667 75.5459C75.1715 74.8804 75.8272 74.3148 76.6341 73.8489C77.3942 73.4101 78.1633 73.1219 78.9415 72.9845C79.7247 72.8286 80.4221 72.8079 81.034 72.9224C81.5284 72.9956 81.8768 73.2076 82.0794 73.5584C82.2279 73.8156 82.2635 74.1069 82.1863 74.4322C82.109 74.7574 81.9359 74.9977 81.6669 75.153C81.4915 75.2542 81.3033 75.2928 81.1022 75.2685C80.8206 75.2128 80.4814 75.206 80.0846 75.2479C79.6811 75.2782 79.277 75.3478 78.8721 75.4568C78.4606 75.5541 78.1028 75.6906 77.7987 75.8661C77.2959 76.1564 76.9062 76.4671 76.6297 76.7983C76.3648 77.1227 76.2088 77.4467 76.1617 77.7701C76.1145 78.0936 76.1754 78.4015 76.3442 78.6938C76.5467 79.0446 76.8149 79.2796 77.1487 79.3987C77.4875 79.4994 77.8903 79.5085 78.3572 79.426C78.8174 79.3318 79.3468 79.1821 79.9455 78.9768C80.7214 78.7003 81.4231 78.4979 82.0506 78.3695C82.6897 78.2343 83.2658 78.2058 83.7786 78.2839C84.2847 78.3503 84.747 78.5434 85.1654 78.8631C85.5771 79.1711 85.9552 79.6233 86.2995 80.2197C86.7383 80.9798 86.9059 81.7561 86.8023 82.5488C86.6986 83.3414 86.3862 84.0831 85.865 84.7738C85.3556 85.4577 84.7033 86.0292 83.9081 86.4883ZM85.7179 86.7064C85.8934 87.0104 85.9333 87.3226 85.8376 87.6429C85.7603 87.9682 85.5697 88.2186 85.2657 88.3941C84.9733 88.5629 84.667 88.5994 84.3467 88.5037C84.0331 88.4197 83.7885 88.2257 83.613 87.9216L75.4708 73.8189C75.2953 73.5149 75.2495 73.2061 75.3335 72.8925C75.4225 72.5605 75.619 72.3067 75.923 72.1312C76.2271 71.9556 76.5334 71.9191 76.842 72.0216C77.1556 72.1056 77.4001 72.2996 77.5757 72.6037L85.7179 86.7064Z" fill="#ED654C"/>
<circle cx="42.9242" cy="106.27" r="14.5666" transform="rotate(30 42.9242 106.27)" fill="#D15842"/>
<path d="M38.9367 112.605C38.1181 112.132 37.4388 111.607 36.8987 111.03C36.3654 110.442 35.9491 109.718 35.6498 108.859C35.572 108.643 35.5395 108.429 35.5521 108.218C35.5648 108.007 35.6184 107.82 35.7129 107.656C35.8682 107.387 36.0968 107.207 36.3986 107.117C36.7189 107.021 37.0253 107.057 37.3176 107.226C37.5398 107.355 37.6981 107.539 37.7925 107.781C38.0276 108.4 38.3074 108.928 38.6321 109.365C38.9684 109.809 39.4581 110.216 40.1013 110.587C40.534 110.837 40.9687 111.002 41.4055 111.083C41.849 111.152 42.246 111.14 42.5964 111.046C42.9537 110.94 43.2167 110.741 43.3854 110.449C43.588 110.098 43.6549 109.739 43.5862 109.372C43.5175 109.005 43.3141 108.615 42.9759 108.201C42.6445 107.776 42.1725 107.324 41.56 106.846C40.9825 106.388 40.5081 105.927 40.1367 105.463C39.772 104.987 39.5104 104.509 39.3517 104.027C39.2115 103.541 39.1743 103.052 39.2402 102.559C39.3128 102.056 39.4942 101.552 39.7845 101.05C40.2234 100.289 40.791 99.7518 41.4875 99.4367C42.1956 99.1283 42.964 99.0263 43.7926 99.1304C44.6212 99.2346 45.4389 99.5196 46.2458 99.9855C47.0058 100.424 47.64 100.946 48.1481 101.552C48.6747 102.152 49.0413 102.745 49.2481 103.333C49.4319 103.797 49.4225 104.205 49.22 104.556C49.0715 104.813 48.8371 104.99 48.5167 105.085C48.1964 105.181 47.9018 105.151 47.6328 104.996C47.4574 104.895 47.3299 104.751 47.2504 104.565C47.1578 104.293 46.9941 103.996 46.7594 103.673C46.5315 103.339 46.2691 103.024 45.9723 102.728C45.6822 102.42 45.3852 102.178 45.0811 102.003C44.5783 101.712 44.1143 101.53 43.6893 101.456C43.2759 101.389 42.9173 101.416 42.6137 101.537C42.31 101.658 42.0737 101.864 41.905 102.157C41.7024 102.508 41.633 102.857 41.6968 103.206C41.779 103.55 41.9726 103.903 42.2774 104.266C42.5891 104.618 42.9834 105.001 43.4606 105.417C44.088 105.951 44.6141 106.457 45.0391 106.937C45.4757 107.423 45.7884 107.907 45.9772 108.39C46.1727 108.862 46.2367 109.359 46.169 109.881C46.1081 110.391 45.9055 110.945 45.5612 111.541C45.1224 112.301 44.5338 112.835 43.7955 113.141C43.0572 113.448 42.2587 113.548 41.4 113.442C40.553 113.343 39.7319 113.064 38.9367 112.605ZM39.6528 114.281C39.4772 114.585 39.2268 114.776 38.9016 114.853C38.5812 114.949 38.2691 114.909 37.965 114.733C37.6727 114.564 37.4879 114.317 37.4106 113.992C37.3266 113.679 37.3723 113.37 37.5479 113.066L45.6901 98.963C45.8656 98.659 46.1102 98.465 46.4237 98.3809C46.7557 98.292 47.0738 98.3353 47.3778 98.5108C47.6818 98.6863 47.8667 98.9334 47.9322 99.2519C48.0162 99.5654 47.9705 99.8742 47.795 100.178L39.6528 114.281Z" fill="#ED654C"/>
</g>
<defs>
<linearGradient id="paint0_linear_1_196" x1="88.5035" y1="0.835266" x2="88.5035" y2="183.867" gradientUnits="userSpaceOnUse">
<stop stop-color="#70BDF0"/>
<stop offset="1" stop-color="#90C9EF"/>
</linearGradient>
</defs>
</svg>
