<svg width="20" height="23" viewBox="0 0 20 23" fill="none" xmlns="http://www.w3.org/2000/svg">
<path d="M15.405 7.46521C15.405 5.87391 14.7728 4.34779 13.6476 3.22257C12.5224 2.09735 10.9963 1.46521 9.40497 1.46521C7.81367 1.46521 6.28755 2.09735 5.16233 3.22257C4.03711 4.34779 3.40497 5.87391 3.40497 7.46521C3.40497 14.4652 0.404968 16.4652 0.404968 16.4652H18.405C18.405 16.4652 15.405 14.4652 15.405 7.46521Z" fill="#E3E3E3"/>
<path d="M11.135 20.4652C10.9591 20.7683 10.7068 21.0199 10.4032 21.1947C10.0996 21.3696 9.75534 21.4617 9.40496 21.4617C9.05458 21.4617 8.71035 21.3696 8.40673 21.1947C8.10311 21.0199 7.85077 20.7683 7.67496 20.4652" stroke="#E3E3E3" stroke-width="2" stroke-linecap="round" stroke-linejoin="round"/>
<circle cx="15.1064" cy="4.16355" r="3.97196" fill="#BB4430"/>
</svg>
